<svg width="32" height="32" viewBox="0 0 32 32" fill="none" xmlns="http://www.w3.org/2000/svg">
<path d="M6.66671 18C3.72004 18 1.33337 20.3867 1.33337 23.3333C1.33337 24.3333 1.61337 25.28 2.10671 26.08C3.02671 27.6267 4.72004 28.6667 6.66671 28.6667C8.61337 28.6667 10.3067 27.6267 11.2267 26.08C11.72 25.28 12 24.3333 12 23.3333C12 20.3867 9.61337 18 6.66671 18ZM9.29337 22.8933L6.45337 25.52C6.26671 25.6933 6.01337 25.7867 5.77337 25.7867C5.52004 25.7867 5.26671 25.6933 5.06671 25.4933L3.74671 24.1733C3.36004 23.7867 3.36004 23.1467 3.74671 22.76C4.13337 22.3733 4.77337 22.3733 5.16004 22.76L5.80004 23.4L7.93337 21.4267C8.33337 21.0533 8.97337 21.08 9.34671 21.48C9.72004 21.88 9.69337 22.52 9.29337 22.8933Z" fill="#78C257"/>
<path d="M23 3.24011H10.3333C6.53333 3.24011 4 5.77345 4 9.57345V15.5201C4 15.9868 4.48 16.3201 4.93333 16.2001C5.49333 16.0668 6.06667 16.0001 6.66667 16.0001C10.48 16.0001 13.6267 19.0934 13.9733 22.8401C14 23.2134 14.3067 23.5068 14.6667 23.5068H15.4L21.04 27.2668C21.8667 27.8268 23 27.2134 23 26.2001V23.5068C24.8933 23.5068 26.48 22.8668 27.5867 21.7734C28.6933 20.6534 29.3333 19.0668 29.3333 17.1734V9.57345C29.3333 5.77345 26.8 3.24011 23 3.24011ZM21.1067 14.4134H12.2267C11.7067 14.4134 11.28 13.9868 11.28 13.4668C11.28 12.9334 11.7067 12.5068 12.2267 12.5068H21.1067C21.6267 12.5068 22.0533 12.9334 22.0533 13.4668C22.0533 13.9868 21.6267 14.4134 21.1067 14.4134Z" fill="#78C257"/>
</svg>
