<svg width="33" height="32" viewBox="0 0 33 32" fill="none" xmlns="http://www.w3.org/2000/svg">
<path d="M4.66663 22C4.11996 22 3.66663 21.5467 3.66663 21V11C3.66663 10.4533 4.11996 10 4.66663 10C5.21329 10 5.66663 10.4533 5.66663 11V21C5.66663 21.5467 5.21329 22 4.66663 22Z" fill="#78C257"/>
<path d="M10.6666 25.3334C10.12 25.3334 9.66663 24.8801 9.66663 24.3334V7.66675C9.66663 7.12008 10.12 6.66675 10.6666 6.66675C11.2133 6.66675 11.6666 7.12008 11.6666 7.66675V24.3334C11.6666 24.8801 11.2133 25.3334 10.6666 25.3334Z" fill="#78C257"/>
<path d="M16.6666 28.6666C16.12 28.6666 15.6666 28.2133 15.6666 27.6666V4.33325C15.6666 3.78659 16.12 3.33325 16.6666 3.33325C17.2133 3.33325 17.6666 3.78659 17.6666 4.33325V27.6666C17.6666 28.2133 17.2133 28.6666 16.6666 28.6666Z" fill="#78C257"/>
<path d="M22.6666 25.3334C22.12 25.3334 21.6666 24.8801 21.6666 24.3334V7.66675C21.6666 7.12008 22.12 6.66675 22.6666 6.66675C23.2133 6.66675 23.6666 7.12008 23.6666 7.66675V24.3334C23.6666 24.8801 23.2133 25.3334 22.6666 25.3334Z" fill="#78C257"/>
<path d="M28.6666 22C28.12 22 27.6666 21.5467 27.6666 21V11C27.6666 10.4533 28.12 10 28.6666 10C29.2133 10 29.6666 10.4533 29.6666 11V21C29.6666 21.5467 29.2133 22 28.6666 22Z" fill="#78C257"/>
</svg>
