<svg width="41" height="50" viewBox="0 0 41 50" fill="none" xmlns="http://www.w3.org/2000/svg">
<g clip-path="url(#clip0_936_1550)">
<path d="M39.4673 17.2269C36.1773 19.2421 34.1453 22.6968 34.1453 26.5353C34.1453 30.8536 36.7579 34.7881 40.7252 36.4195C39.9511 38.9145 38.79 41.2176 37.3385 43.3288C35.2097 46.3037 32.9841 49.3745 29.6942 49.3745C26.4042 49.3745 25.4366 47.4552 21.566 47.4552C17.7923 47.4552 16.4376 49.4705 13.3411 49.4705C10.2447 49.4705 8.11591 46.6875 5.69683 43.2329C2.50363 38.4347 0.665123 32.8689 0.568359 27.0151C0.568359 17.5148 6.76123 12.4287 12.9541 12.4287C16.2441 12.4287 18.9534 14.5399 20.9855 14.5399C22.9207 14.5399 26.0172 12.3328 29.6942 12.3328C33.5647 12.2368 37.2417 14.0601 39.4673 17.2269ZM27.9524 8.30231C29.5974 6.38305 30.4683 3.98397 30.5651 1.48893C30.5651 1.20104 30.5651 0.817186 30.4683 0.529297C27.6621 0.817186 25.0495 2.16067 23.211 4.27186C21.566 6.09516 20.5984 8.39827 20.5016 10.8933C20.5016 11.1812 20.5016 11.4691 20.5984 11.757C20.7919 11.757 21.0822 11.8529 21.2758 11.8529C23.8884 11.661 26.3075 10.3175 27.9524 8.30231Z" fill="black"/>
</g>
<defs>
<clipPath id="clip0_936_1550">
<rect width="40.1569" height="48.9412" fill="white" transform="translate(0.568359 0.529297)"/>
</clipPath>
</defs>
</svg>
