<svg width="88" height="42" viewBox="0 0 88 42" fill="none" xmlns="http://www.w3.org/2000/svg">
<path d="M2.62866 6.86034C9.01285 13.0286 16.6446 13.4957 23.2834 7.14058" stroke="url(#paint0_linear_316_980)" stroke-width="3.36449" stroke-linecap="round" stroke-linejoin="round"/>
<path d="M7.13525 2.84154C10.1396 6.20605 15.7727 6.20606 18.9648 2.84157" stroke="url(#paint1_linear_316_980)" stroke-width="3.36449" stroke-linecap="round" stroke-linejoin="round"/>
<path d="M17.6604 1.88629C18.1316 1.01232 19.1753 0.712877 19.9916 1.21746C20.8078 1.72205 21.0875 2.8396 20.6162 3.71357L3.18477 36.0413C2.71352 36.9153 1.6698 37.2147 0.853566 36.7101C0.0373299 36.2056 -0.242333 35.088 0.228921 34.214L17.6604 1.88629Z" fill="url(#paint2_linear_316_980)"/>
<path d="M21.9391 6.20882C22.4228 5.31162 23.4943 5.00422 24.3322 5.52222C25.1701 6.04021 25.4572 7.18745 24.9734 8.08464L7.84714 39.8465C7.26661 40.9231 5.98088 41.292 4.97537 40.6704C4.30503 40.256 4.07536 39.3382 4.46238 38.6205L21.9391 6.20882Z" fill="url(#paint3_linear_316_980)"/>
<path d="M1.8772 35.1081C8.26139 28.9399 15.7722 28.9399 22.411 35.295" stroke="#78C257" stroke-width="3.73832" stroke-linecap="round" stroke-linejoin="round"/>
<path d="M6.00854 39.2921C9.01287 35.9276 14.8337 36.1145 18.0258 39.479" stroke="#78C257" stroke-width="3.73832" stroke-linecap="round" stroke-linejoin="round"/>
<path d="M31.3192 24.3723L38.6815 9.53173H32.1501V6.98101H42.8748L35.5124 21.8216H42.5076V24.3723H31.3192ZM58.9104 24.7201C57.6479 24.7201 56.4627 24.4883 55.3548 24.0245C54.2469 23.5478 53.2743 22.8973 52.437 22.0728C51.6125 21.2483 50.9619 20.2886 50.4853 19.1936C50.0086 18.0986 49.7703 16.9263 49.7703 15.6767C49.7703 14.4271 50.0086 13.2548 50.4853 12.1598C50.9619 11.0647 51.6125 10.105 52.437 9.28053C53.2743 8.45605 54.2469 7.81193 55.3548 7.34816C56.4627 6.87151 57.6479 6.63318 58.9104 6.63318C60.1858 6.63318 61.3709 6.87151 62.466 7.34816C63.5738 7.81193 64.5465 8.45605 65.3838 9.28053C66.2212 10.105 66.8717 11.0647 67.3355 12.1598C67.8122 13.2548 68.0505 14.4271 68.0505 15.6767C68.0505 16.9263 67.8122 18.0986 67.3355 19.1936C66.8717 20.2886 66.2212 21.2483 65.3838 22.0728C64.5465 22.8973 63.5738 23.5478 62.466 24.0245C61.3709 24.4883 60.1858 24.7201 58.9104 24.7201ZM58.9104 21.9955C60.0698 21.9955 61.1133 21.7121 62.0408 21.1453C62.9812 20.5784 63.722 19.8184 64.2631 18.8651C64.817 17.8989 65.094 16.8361 65.094 15.6767C65.094 14.5044 64.817 13.4416 64.2631 12.4883C63.722 11.535 62.9812 10.7749 62.0408 10.2081C61.1133 9.64124 60.0698 9.35782 58.9104 9.35782C57.751 9.35782 56.7011 9.64124 55.7606 10.2081C54.8331 10.7749 54.0924 11.535 53.5384 12.4883C52.9974 13.4416 52.7268 14.5044 52.7268 15.6767C52.7268 16.8361 52.9974 17.8989 53.5384 18.8651C54.0924 19.8184 54.8331 20.5784 55.7606 21.1453C56.7011 21.7121 57.751 21.9955 58.9104 21.9955ZM76.8681 24.3723V6.98101H85.7957V9.47376H79.6507V12.6622H84.443V15.097H79.6507V21.8216H85.7957V24.3723H76.8681Z" fill="black"/>
<path d="M31.5575 34.5723V29.4057L33.9075 32.4834L36.213 29.4057V34.5723H35.413V32.7001C35.413 32.5445 35.4149 32.3705 35.4186 32.1779C35.4223 31.9853 35.4371 31.7668 35.463 31.5223C35.3482 31.7186 35.2371 31.8908 35.1297 32.039C35.0223 32.1871 34.9241 32.3223 34.8352 32.4445L33.8852 33.7612L32.9075 32.4445C32.8186 32.326 32.7186 32.189 32.6075 32.0334C32.4964 31.8779 32.3852 31.7038 32.2741 31.5112C32.3001 31.7631 32.3149 31.9853 32.3186 32.1779C32.3223 32.3668 32.3241 32.5408 32.3241 32.7001V34.5723H31.5575ZM38.937 34.6612C38.5777 34.6612 38.2573 34.5834 37.9759 34.4279C37.6944 34.2723 37.474 34.0594 37.3148 33.789C37.1592 33.5186 37.0814 33.2131 37.0814 32.8723C37.0814 32.5464 37.1573 32.2538 37.3092 31.9945C37.4648 31.7353 37.6722 31.5297 37.9314 31.3779C38.1944 31.226 38.4833 31.1501 38.7981 31.1501C39.1166 31.1501 39.4036 31.2242 39.6592 31.3723C39.9185 31.5205 40.124 31.7223 40.2759 31.9779C40.4277 32.2297 40.5036 32.5168 40.5036 32.839V33.1334H38.3981C38.3055 33.1334 38.2129 33.1297 38.1203 33.1223C38.0277 33.1112 37.9351 33.0983 37.8425 33.0834C37.887 33.339 38.0092 33.552 38.2092 33.7223C38.4129 33.8927 38.6611 33.9779 38.9536 33.9779C39.1648 33.9779 39.3573 33.9334 39.5314 33.8445C39.7055 33.752 39.8481 33.6334 39.9592 33.489L40.1481 34.2668C39.9851 34.3964 39.7999 34.4945 39.5925 34.5612C39.3851 34.6279 39.1666 34.6612 38.937 34.6612ZM37.8259 32.5834C38.0185 32.5464 38.2092 32.5279 38.3981 32.5279H39.2425C39.3351 32.5279 39.424 32.5316 39.5092 32.539C39.5981 32.5464 39.6833 32.5557 39.7648 32.5668C39.7092 32.3408 39.5925 32.1575 39.4148 32.0168C39.2407 31.8723 39.0333 31.8001 38.7925 31.8001C38.5592 31.8001 38.3536 31.8742 38.1759 32.0223C37.9981 32.1705 37.8814 32.3575 37.8259 32.5834ZM42.6387 34.639C42.3313 34.639 42.0517 34.5612 41.7998 34.4057C41.548 34.2501 41.3461 34.0408 41.1943 33.7779C41.0461 33.5149 40.972 33.2242 40.972 32.9057C40.972 32.5871 41.0461 32.2964 41.1943 32.0334C41.3461 31.7705 41.548 31.5612 41.7998 31.4057C42.0517 31.2501 42.3313 31.1723 42.6387 31.1723C42.835 31.1723 43.0183 31.2057 43.1887 31.2723C43.3628 31.3353 43.5183 31.4242 43.6554 31.539V29.239H44.4387V34.5723H43.7443V34.189C43.6072 34.3297 43.4424 34.4408 43.2498 34.5223C43.0609 34.6001 42.8572 34.639 42.6387 34.639ZM42.7332 33.939C42.9183 33.939 43.0869 33.8927 43.2387 33.8001C43.3943 33.7075 43.5165 33.5834 43.6054 33.4279C43.698 33.2723 43.7443 33.0983 43.7443 32.9057C43.7443 32.7168 43.698 32.5445 43.6054 32.389C43.5165 32.2297 43.3961 32.1038 43.2443 32.0112C43.0924 31.9186 42.922 31.8723 42.7332 31.8723C42.548 31.8723 42.3776 31.9186 42.222 32.0112C42.0702 32.1038 41.948 32.2279 41.8554 32.3834C41.7665 32.539 41.722 32.7131 41.722 32.9057C41.722 33.0945 41.7665 33.2686 41.8554 33.4279C41.948 33.5834 42.0702 33.7075 42.222 33.8001C42.3739 33.8927 42.5443 33.939 42.7332 33.939ZM45.3417 34.5723V31.239H46.125V34.5723H45.3417ZM45.7361 30.7001C45.6065 30.7001 45.4972 30.6557 45.4083 30.5668C45.3194 30.4742 45.275 30.3649 45.275 30.239C45.275 30.1057 45.3194 29.9964 45.4083 29.9112C45.5009 29.8223 45.6102 29.7779 45.7361 29.7779C45.8694 29.7779 45.9787 29.8223 46.0639 29.9112C46.1528 30.0001 46.1972 30.1094 46.1972 30.239C46.1972 30.3686 46.1528 30.4779 46.0639 30.5668C45.975 30.6557 45.8657 30.7001 45.7361 30.7001ZM48.6148 34.6612C48.2851 34.6612 47.9851 34.5834 47.7148 34.4279C47.4444 34.2686 47.2296 34.0557 47.0703 33.789C46.9111 33.5223 46.8314 33.2279 46.8314 32.9057C46.8314 32.5797 46.9111 32.2853 47.0703 32.0223C47.2296 31.7557 47.4444 31.5445 47.7148 31.389C47.9851 31.2297 48.2851 31.1501 48.6148 31.1501C48.8481 31.1501 49.0685 31.1908 49.2759 31.2723C49.487 31.3501 49.6722 31.4612 49.8314 31.6057L49.6148 32.4779C49.5222 32.3112 49.3907 32.1686 49.2203 32.0501C49.0499 31.9279 48.8536 31.8668 48.6314 31.8668C48.4388 31.8668 48.2629 31.9149 48.1036 32.0112C47.9481 32.1038 47.824 32.2279 47.7314 32.3834C47.6425 32.539 47.5981 32.7131 47.5981 32.9057C47.5981 33.0945 47.6425 33.2686 47.7314 33.4279C47.824 33.5834 47.9481 33.7094 48.1036 33.8057C48.2629 33.8983 48.4388 33.9445 48.6314 33.9445C48.8536 33.9445 49.0499 33.8853 49.2203 33.7668C49.3907 33.6483 49.5222 33.5038 49.6148 33.3334L49.8314 34.2057C49.6722 34.3501 49.487 34.4631 49.2759 34.5445C49.0685 34.6223 48.8481 34.6612 48.6148 34.6612ZM51.9066 34.639C51.6029 34.639 51.3251 34.5612 51.0733 34.4057C50.8214 34.2501 50.6196 34.0408 50.4677 33.7779C50.3196 33.5149 50.2455 33.2242 50.2455 32.9057C50.2455 32.5871 50.3196 32.2964 50.4677 32.0334C50.6196 31.7705 50.8214 31.5612 51.0733 31.4057C51.3251 31.2501 51.6029 31.1723 51.9066 31.1723C52.1288 31.1723 52.3344 31.2131 52.5233 31.2945C52.7159 31.3723 52.8807 31.4834 53.0177 31.6279V31.239H53.7122V34.5723H53.0177V34.1834C52.8807 34.3242 52.7159 34.4353 52.5233 34.5168C52.3344 34.5983 52.1288 34.639 51.9066 34.639ZM52.0066 33.939C52.1918 33.939 52.3603 33.8927 52.5122 33.8001C52.6677 33.7075 52.7899 33.5834 52.8788 33.4279C52.9714 33.2723 53.0177 33.0983 53.0177 32.9057C53.0177 32.7168 52.9714 32.5445 52.8788 32.389C52.7899 32.2297 52.6696 32.1038 52.5177 32.0112C52.3659 31.9186 52.1955 31.8723 52.0066 31.8723C51.8214 31.8723 51.651 31.9186 51.4955 32.0112C51.3436 32.1038 51.2214 32.2279 51.1288 32.3834C51.0399 32.539 50.9955 32.7131 50.9955 32.9057C50.9955 33.0945 51.0399 33.2686 51.1288 33.4279C51.2214 33.5834 51.3436 33.7075 51.4955 33.8001C51.6473 33.8927 51.8177 33.939 52.0066 33.939ZM54.6151 34.5723V29.239H55.3984V34.5723H54.6151ZM58.1356 34.5723V29.5723H59.8023C60.2282 29.5723 60.606 29.6427 60.9356 29.7834C61.2689 29.9205 61.5504 30.1075 61.78 30.3445C62.0097 30.5779 62.1837 30.8445 62.3023 31.1445C62.4208 31.4445 62.48 31.7538 62.48 32.0723C62.48 32.3908 62.4208 32.7001 62.3023 33.0001C62.1837 33.3001 62.0097 33.5686 61.78 33.8057C61.5504 34.039 61.2689 34.226 60.9356 34.3668C60.606 34.5038 60.2282 34.5723 59.8023 34.5723H58.1356ZM58.9356 33.839H59.7245C60.0578 33.839 60.343 33.789 60.58 33.689C60.8208 33.5853 61.0189 33.4483 61.1745 33.2779C61.33 33.1075 61.4448 32.9186 61.5189 32.7112C61.593 32.5001 61.63 32.2871 61.63 32.0723C61.63 31.8575 61.593 31.6464 61.5189 31.439C61.4448 31.2279 61.33 31.0371 61.1745 30.8668C61.0189 30.6964 60.8208 30.5612 60.58 30.4612C60.343 30.3575 60.0578 30.3057 59.7245 30.3057H58.9356V33.839ZM63.2557 34.5723V31.239H64.0391V34.5723H63.2557ZM63.6502 30.7001C63.5205 30.7001 63.4113 30.6557 63.3224 30.5668C63.2335 30.4742 63.1891 30.3649 63.1891 30.239C63.1891 30.1057 63.2335 29.9964 63.3224 29.9112C63.415 29.8223 63.5242 29.7779 63.6502 29.7779C63.7835 29.7779 63.8928 29.8223 63.9779 29.9112C64.0668 30.0001 64.1113 30.1094 64.1113 30.239C64.1113 30.3686 64.0668 30.4779 63.9779 30.5668C63.8891 30.6557 63.7798 30.7001 63.6502 30.7001ZM66.5288 34.6612C66.1992 34.6612 65.8992 34.5834 65.6288 34.4279C65.3584 34.2686 65.1436 34.0557 64.9844 33.789C64.8251 33.5223 64.7455 33.2279 64.7455 32.9057C64.7455 32.5797 64.8251 32.2853 64.9844 32.0223C65.1436 31.7557 65.3584 31.5445 65.6288 31.389C65.8992 31.2297 66.1992 31.1501 66.5288 31.1501C66.7622 31.1501 66.9825 31.1908 67.1899 31.2723C67.401 31.3501 67.5862 31.4612 67.7455 31.6057L67.5288 32.4779C67.4362 32.3112 67.3047 32.1686 67.1344 32.0501C66.964 31.9279 66.7677 31.8668 66.5455 31.8668C66.3529 31.8668 66.177 31.9149 66.0177 32.0112C65.8622 32.1038 65.7381 32.2279 65.6455 32.3834C65.5566 32.539 65.5122 32.7131 65.5122 32.9057C65.5122 33.0945 65.5566 33.2686 65.6455 33.4279C65.7381 33.5834 65.8622 33.7094 66.0177 33.8057C66.177 33.8983 66.3529 33.9445 66.5455 33.9445C66.7677 33.9445 66.964 33.8853 67.1344 33.7668C67.3047 33.6483 67.4362 33.5038 67.5288 33.3334L67.7455 34.2057C67.5862 34.3501 67.401 34.4631 67.1899 34.5445C66.9825 34.6223 66.7622 34.6612 66.5288 34.6612ZM68.7484 34.5723V31.8723H68.0595V31.239H68.7651V30.1279H69.5151V31.239H70.2595V31.8723H69.5318V34.5723H68.7484ZM72.1566 34.639C71.8529 34.639 71.5751 34.5612 71.3233 34.4057C71.0714 34.2501 70.8696 34.0408 70.7177 33.7779C70.5696 33.5149 70.4955 33.2242 70.4955 32.9057C70.4955 32.5871 70.5696 32.2964 70.7177 32.0334C70.8696 31.7705 71.0714 31.5612 71.3233 31.4057C71.5751 31.2501 71.8529 31.1723 72.1566 31.1723C72.3788 31.1723 72.5844 31.2131 72.7733 31.2945C72.9659 31.3723 73.1307 31.4834 73.2677 31.6279V31.239H73.9622V34.5723H73.2677V34.1834C73.1307 34.3242 72.9659 34.4353 72.7733 34.5168C72.5844 34.5983 72.3788 34.639 72.1566 34.639ZM72.2566 33.939C72.4418 33.939 72.6103 33.8927 72.7622 33.8001C72.9177 33.7075 73.0399 33.5834 73.1288 33.4279C73.2214 33.2723 73.2677 33.0983 73.2677 32.9057C73.2677 32.7168 73.2214 32.5445 73.1288 32.389C73.0399 32.2297 72.9196 32.1038 72.7677 32.0112C72.6159 31.9186 72.4455 31.8723 72.2566 31.8723C72.0714 31.8723 71.901 31.9186 71.7455 32.0112C71.5936 32.1038 71.4714 32.2279 71.3788 32.3834C71.2899 32.539 71.2455 32.7131 71.2455 32.9057C71.2455 33.0945 71.2899 33.2686 71.3788 33.4279C71.4714 33.5834 71.5936 33.7075 71.7455 33.8001C71.8973 33.8927 72.0677 33.939 72.2566 33.939ZM75.2484 34.5723V31.8723H74.5595V31.239H75.2651V30.1279H76.0151V31.239H76.7595V31.8723H76.0318V34.5723H75.2484ZM77.3651 34.5723V31.239H78.1484V34.5723H77.3651ZM77.7595 30.7001C77.6299 30.7001 77.5207 30.6557 77.4318 30.5668C77.3429 30.4742 77.2984 30.3649 77.2984 30.239C77.2984 30.1057 77.3429 29.9964 77.4318 29.9112C77.5244 29.8223 77.6336 29.7779 77.7595 29.7779C77.8929 29.7779 78.0021 29.8223 78.0873 29.9112C78.1762 30.0001 78.2207 30.1094 78.2207 30.239C78.2207 30.3686 78.1762 30.4779 78.0873 30.5668C77.9984 30.6557 77.8892 30.7001 77.7595 30.7001ZM80.6326 34.6612C80.3067 34.6612 80.0086 34.5834 79.7382 34.4279C79.4678 34.2686 79.253 34.0557 79.0937 33.789C78.9345 33.5223 78.8549 33.2279 78.8549 32.9057C78.8549 32.5797 78.9345 32.2853 79.0937 32.0223C79.253 31.7557 79.4678 31.5445 79.7382 31.389C80.0086 31.2297 80.3067 31.1501 80.6326 31.1501C80.9623 31.1501 81.2604 31.2297 81.5271 31.389C81.7975 31.5445 82.0123 31.7557 82.1715 32.0223C82.3308 32.2853 82.4104 32.5797 82.4104 32.9057C82.4104 33.2279 82.3308 33.5223 82.1715 33.789C82.0123 34.0557 81.7975 34.2686 81.5271 34.4279C81.2604 34.5834 80.9623 34.6612 80.6326 34.6612ZM80.6326 33.9445C80.8215 33.9445 80.9937 33.8983 81.1493 33.8057C81.3049 33.7094 81.4271 33.5834 81.516 33.4279C81.6086 33.2723 81.6549 33.0983 81.6549 32.9057C81.6549 32.7131 81.6086 32.539 81.516 32.3834C81.4271 32.2279 81.3049 32.1038 81.1493 32.0112C80.9937 31.9149 80.8215 31.8668 80.6326 31.8668C80.4437 31.8668 80.2715 31.9149 80.116 32.0112C79.9604 32.1038 79.8363 32.2279 79.7437 32.3834C79.6549 32.539 79.6104 32.7131 79.6104 32.9057C79.6104 33.0983 79.6549 33.2723 79.7437 33.4279C79.8363 33.5834 79.9586 33.7094 80.1104 33.8057C80.266 33.8983 80.44 33.9445 80.6326 33.9445ZM83.1095 34.5723V31.239H83.8207V31.689C83.9429 31.5149 84.0947 31.3816 84.2762 31.289C84.4614 31.1964 84.6614 31.1501 84.8762 31.1501C85.1132 31.1501 85.3336 31.2075 85.5373 31.3223C85.741 31.4371 85.9058 31.6038 86.0318 31.8223C86.1577 32.0408 86.2207 32.3057 86.2207 32.6168V34.5723H85.4373V32.7223C85.4373 32.5001 85.3688 32.302 85.2318 32.1279C85.0984 31.9538 84.9095 31.8668 84.6651 31.8668C84.4651 31.8668 84.2855 31.9371 84.1262 32.0779C83.9707 32.2186 83.8929 32.4279 83.8929 32.7057V34.5723H83.1095Z" fill="black"/>
<defs>
<linearGradient id="paint0_linear_316_980" x1="23.1625" y1="9.06839" x2="2.62866" y2="9.06839" gradientUnits="userSpaceOnUse">
<stop stop-color="#395C29"/>
<stop offset="0.401847" stop-color="#78C257"/>
</linearGradient>
<linearGradient id="paint1_linear_316_980" x1="19.1526" y1="3.96403" x2="7.13525" y2="3.96403" gradientUnits="userSpaceOnUse">
<stop stop-color="#395C29"/>
<stop offset="0.351022" stop-color="#78C257"/>
</linearGradient>
<linearGradient id="paint2_linear_316_980" x1="11.6585" y1="25.4189" x2="11.6775" y2="40.9735" gradientUnits="userSpaceOnUse">
<stop stop-color="#78C257"/>
<stop offset="1" stop-color="#395C29"/>
</linearGradient>
<linearGradient id="paint3_linear_316_980" x1="12.7683" y1="25.9226" x2="3.62665" y2="40.3156" gradientUnits="userSpaceOnUse">
<stop stop-color="#78C257"/>
<stop offset="1" stop-color="#395C29"/>
</linearGradient>
</defs>
</svg>
