<svg width="33" height="32" viewBox="0 0 33 32" fill="none" xmlns="http://www.w3.org/2000/svg">
<path d="M29.3867 27.6799L28.4267 26.7199C28.92 25.9733 29.2134 25.0666 29.2134 24.1066C29.2134 21.4666 27.08 19.3333 24.44 19.3333C21.8 19.3333 19.6667 21.4666 19.6667 24.1066C19.6667 26.7466 21.8 28.8799 24.44 28.8799C25.4134 28.8799 26.3067 28.5866 27.0534 28.0933L28.0134 29.0533C28.2 29.2399 28.4534 29.3333 28.6934 29.3333C28.9467 29.3333 29.1867 29.2399 29.3734 29.0533C29.76 28.6666 29.76 28.0533 29.3867 27.6799Z" fill="#78C257"/>
<path d="M3.04003 19.5066C3.04003 19.5466 3.01337 19.5999 3.01337 19.6399C4.24003 22.0933 6.24003 24.1066 8.69337 25.3199C8.73337 25.3199 8.7867 25.2933 8.8267 25.2933C8.37337 23.7466 8.0267 22.1599 7.77337 20.5733C6.17337 20.3066 4.5867 19.9599 3.04003 19.5066Z" fill="#78C257"/>
<path d="M25.76 8.57334C24.5067 5.94667 22.3867 3.82667 19.7734 2.58667C20.2534 4.17334 20.6534 5.8 20.92 7.42667C22.5467 7.69334 24.1734 8.08 25.76 8.57334Z" fill="#78C257"/>
<path d="M2.90674 8.57336C4.50674 8.09336 6.13341 7.69336 7.76007 7.42669C8.02674 5.84003 8.36007 4.26669 8.81341 2.72003C8.77341 2.72003 8.72007 2.69336 8.68007 2.69336C6.17341 3.93336 4.1334 6.02669 2.90674 8.57336Z" fill="#78C257"/>
<path d="M18.76 7.14659C18.44 5.41325 18.04 3.67992 17.4667 1.99992C17.44 1.90659 17.44 1.82659 17.4267 1.71992C16.44 1.47992 15.4 1.33325 14.3333 1.33325C13.2533 1.33325 12.2267 1.47992 11.2267 1.73325C11.2133 1.82659 11.2267 1.90659 11.2 2.01325C10.64 3.69325 10.2267 5.41325 9.90668 7.14659C12.8533 6.82659 15.8133 6.82659 18.76 7.14659Z" fill="#78C257"/>
<path d="M7.48002 9.57324C5.73335 9.89324 4.02669 10.3066 2.33335 10.8666C2.24002 10.8932 2.16002 10.8932 2.06669 10.9066C1.81335 11.8932 1.66669 12.9332 1.66669 13.9999C1.66669 15.0799 1.81335 16.1066 2.06669 17.1066C2.16002 17.1199 2.24002 17.1066 2.34669 17.1332C4.02669 17.6932 5.74669 18.1066 7.49335 18.4266C7.16002 15.4799 7.16002 12.5199 7.48002 9.57324Z" fill="#78C257"/>
<path d="M26.6001 10.9066C26.5067 10.9066 26.4267 10.8932 26.3201 10.8666C24.6401 10.3066 22.9067 9.89324 21.1734 9.57324C21.5067 12.5199 21.5067 15.4799 21.1734 18.4132C22.9067 18.0932 24.6401 17.6932 26.3201 17.1199C26.4134 17.0932 26.4934 17.1066 26.6001 17.0932C26.8401 16.0932 27.0001 15.0666 27.0001 13.9866C27.0001 12.9332 26.8534 11.9066 26.6001 10.9066Z" fill="#78C257"/>
<path d="M9.90668 20.8532C10.2267 22.5998 10.6267 24.3198 11.2 25.9998C11.2267 26.0932 11.2133 26.1732 11.2267 26.2798C12.2267 26.5198 13.2533 26.6665 14.3333 26.6665C15.4 26.6665 16.44 26.5198 17.4267 26.2665C17.44 26.1732 17.44 26.0932 17.4667 25.9865C18.0267 24.3065 18.44 22.5865 18.76 20.8398C17.2933 20.9998 15.8133 21.1198 14.3333 21.1198C12.8533 21.1198 11.3733 21.0132 9.90668 20.8532Z" fill="#78C257"/>
<path d="M9.60005 9.2668C9.20005 12.4135 9.20005 15.5868 9.60005 18.7468C12.7467 19.1468 15.92 19.1468 19.08 18.7468C19.4801 15.6001 19.4801 12.4268 19.08 9.2668C15.92 8.8668 12.7467 8.8668 9.60005 9.2668Z" fill="#78C257"/>
</svg>
