<svg width="70" height="33" viewBox="0 0 70 33" fill="none" xmlns="http://www.w3.org/2000/svg">
<path d="M2.09094 4.71056C7.16928 9.64513 13.24 10.0189 18.5208 4.93475" stroke="url(#paint0_linear_316_1052)" stroke-width="2.69159" stroke-linecap="round" stroke-linejoin="round"/>
<path d="M5.67566 1.49545C8.06546 4.18706 12.5463 4.18707 15.0855 1.49547" stroke="url(#paint1_linear_316_1052)" stroke-width="2.69159" stroke-linecap="round" stroke-linejoin="round"/>
<path d="M14.048 0.731154C14.4229 0.0319766 15.2531 -0.20758 15.9024 0.196091C16.5517 0.599761 16.7741 1.4938 16.3993 2.19297L2.53334 28.0552C2.15848 28.7543 1.32825 28.9939 0.678973 28.5902C0.0296942 28.1866 -0.192765 27.2925 0.182096 26.5933L14.048 0.731154Z" fill="url(#paint2_linear_316_1052)"/>
<path d="M17.4515 4.18917C17.8363 3.47142 18.6886 3.2255 19.3552 3.63989C20.0217 4.05429 20.2501 4.97208 19.8652 5.68983L6.24205 31.0993C5.78026 31.9606 4.75752 32.2557 3.95768 31.7584C3.42446 31.4269 3.24176 30.6927 3.54962 30.1185L17.4515 4.18917Z" fill="url(#paint3_linear_316_1052)"/>
<path d="M1.49316 27.3084C6.5715 22.3739 12.546 22.3739 17.8269 27.458" stroke="#78C257" stroke-width="2.99065" stroke-linecap="round" stroke-linejoin="round"/>
<path d="M4.77942 30.6555C7.16922 27.9639 11.7995 28.1134 14.3386 30.805" stroke="#78C257" stroke-width="2.99065" stroke-linecap="round" stroke-linejoin="round"/>
<path d="M24.9156 19.1201L30.8054 7.24765H25.5803V5.20707H34.16L28.2701 17.0795H33.8663V19.1201H24.9156ZM46.9885 19.3984C45.9785 19.3984 45.0304 19.2129 44.1441 18.8419C43.2577 18.4605 42.4796 17.9401 41.8098 17.2805C41.1502 16.6209 40.6297 15.8531 40.2484 14.9771C39.8671 14.1011 39.6764 13.1633 39.6764 12.1636C39.6764 11.1639 39.8671 10.2261 40.2484 9.35007C40.6297 8.47406 41.1502 7.70627 41.8098 7.04669C42.4796 6.38711 43.2577 5.87181 44.1441 5.50079C45.0304 5.11947 45.9785 4.92881 46.9885 4.92881C48.0088 4.92881 48.9569 5.11947 49.8329 5.50079C50.7193 5.87181 51.4974 6.38711 52.1672 7.04669C52.8371 7.70627 53.3576 8.47406 53.7286 9.35007C54.1099 10.2261 54.3006 11.1639 54.3006 12.1636C54.3006 13.1633 54.1099 14.1011 53.7286 14.9771C53.3576 15.8531 52.8371 16.6209 52.1672 17.2805C51.4974 17.9401 50.7193 18.4605 49.8329 18.8419C48.9569 19.2129 48.0088 19.3984 46.9885 19.3984ZM46.9885 17.2187C47.916 17.2187 48.7508 16.9919 49.4928 16.5385C50.2452 16.085 50.8378 15.477 51.2706 14.7143C51.7138 13.9414 51.9354 13.0911 51.9354 12.1636C51.9354 11.2258 51.7138 10.3755 51.2706 9.61287C50.8378 8.85023 50.2452 8.24218 49.4928 7.78872C48.7508 7.33525 47.916 7.10852 46.9885 7.10852C46.061 7.10852 45.221 7.33525 44.4687 7.78872C43.7267 8.24218 43.1341 8.85023 42.6909 9.61287C42.2581 10.3755 42.0416 11.2258 42.0416 12.1636C42.0416 13.0911 42.2581 13.9414 42.6909 14.7143C43.1341 15.477 43.7267 16.085 44.4687 16.5385C45.221 16.9919 46.061 17.2187 46.9885 17.2187ZM61.3547 19.1201V5.20707H68.4967V7.20128H63.5808V9.752H67.4146V11.6998H63.5808V17.0795H68.4967V19.1201H61.3547Z" fill="white"/>
<path d="M25.1053 26.8804V22.747L26.9853 25.2093L28.8297 22.747V26.8804H28.1897V25.3826C28.1897 25.2581 28.1912 25.1189 28.1942 24.9648C28.1971 24.8107 28.209 24.6359 28.2297 24.4404C28.1379 24.5974 28.049 24.7352 27.963 24.8537C27.8771 24.9722 27.7986 25.0804 27.7275 25.1781L26.9675 26.2315L26.1853 25.1781C26.1142 25.0833 26.0342 24.9737 25.9453 24.8493C25.8564 24.7248 25.7675 24.5856 25.6786 24.4315C25.6993 24.633 25.7112 24.8107 25.7142 24.9648C25.7171 25.1159 25.7186 25.2552 25.7186 25.3826V26.8804H25.1053ZM31.0089 26.9515C30.7215 26.9515 30.4652 26.8893 30.24 26.7648C30.0148 26.6404 29.8385 26.47 29.7111 26.2537C29.5867 26.0374 29.5244 25.793 29.5244 25.5204C29.5244 25.2596 29.5852 25.0256 29.7067 24.8181C29.8311 24.6107 29.997 24.4463 30.2044 24.3248C30.4148 24.2033 30.6459 24.1426 30.8978 24.1426C31.1526 24.1426 31.3822 24.2019 31.5867 24.3204C31.7941 24.4389 31.9585 24.6004 32.08 24.8048C32.2015 25.0063 32.2622 25.2359 32.2622 25.4937V25.7293H30.5778C30.5037 25.7293 30.4296 25.7263 30.3555 25.7204C30.2815 25.7115 30.2074 25.7011 30.1333 25.6893C30.1689 25.8937 30.2667 26.0641 30.4267 26.2004C30.5896 26.3367 30.7881 26.4048 31.0222 26.4048C31.1911 26.4048 31.3452 26.3693 31.4844 26.2981C31.6237 26.2241 31.7378 26.1293 31.8267 26.0137L31.9778 26.6359C31.8474 26.7396 31.6993 26.8181 31.5333 26.8715C31.3674 26.9248 31.1926 26.9515 31.0089 26.9515ZM30.12 25.2893C30.2741 25.2596 30.4267 25.2448 30.5778 25.2448H31.2533C31.3274 25.2448 31.3985 25.2478 31.4667 25.2537C31.5378 25.2596 31.6059 25.267 31.6711 25.2759C31.6267 25.0952 31.5333 24.9485 31.3911 24.8359C31.2518 24.7204 31.0859 24.6626 30.8933 24.6626C30.7067 24.6626 30.5422 24.7219 30.4 24.8404C30.2578 24.9589 30.1644 25.1085 30.12 25.2893ZM33.9703 26.9337C33.7243 26.9337 33.5006 26.8715 33.2992 26.747C33.0977 26.6226 32.9362 26.4552 32.8147 26.2448C32.6962 26.0344 32.6369 25.8019 32.6369 25.547C32.6369 25.2922 32.6962 25.0596 32.8147 24.8493C32.9362 24.6389 33.0977 24.4715 33.2992 24.347C33.5006 24.2226 33.7243 24.1604 33.9703 24.1604C34.1273 24.1604 34.274 24.187 34.4103 24.2404C34.5495 24.2907 34.674 24.3619 34.7836 24.4537V22.6137H35.4103V26.8804H34.8547V26.5737C34.7451 26.6863 34.6132 26.7752 34.4592 26.8404C34.308 26.9026 34.1451 26.9337 33.9703 26.9337ZM34.0458 26.3737C34.194 26.3737 34.3288 26.3367 34.4503 26.2626C34.5747 26.1885 34.6725 26.0893 34.7436 25.9648C34.8177 25.8404 34.8547 25.7011 34.8547 25.547C34.8547 25.3959 34.8177 25.2581 34.7436 25.1337C34.6725 25.0063 34.5762 24.9056 34.4547 24.8315C34.3332 24.7574 34.1969 24.7204 34.0458 24.7204C33.8977 24.7204 33.7614 24.7574 33.6369 24.8315C33.5155 24.9056 33.4177 25.0048 33.3436 25.1293C33.2725 25.2537 33.2369 25.393 33.2369 25.547C33.2369 25.6981 33.2725 25.8374 33.3436 25.9648C33.4177 26.0893 33.5155 26.1885 33.6369 26.2626C33.7584 26.3367 33.8947 26.3737 34.0458 26.3737ZM36.1326 26.8804V24.2137H36.7593V26.8804H36.1326ZM36.4482 23.7826C36.3445 23.7826 36.2571 23.747 36.186 23.6759C36.1149 23.6019 36.0793 23.5144 36.0793 23.4137C36.0793 23.307 36.1149 23.2196 36.186 23.1515C36.26 23.0804 36.3474 23.0448 36.4482 23.0448C36.5549 23.0448 36.6423 23.0804 36.7104 23.1515C36.7815 23.2226 36.8171 23.31 36.8171 23.4137C36.8171 23.5174 36.7815 23.6048 36.7104 23.6759C36.6393 23.747 36.5519 23.7826 36.4482 23.7826ZM38.7511 26.9515C38.4874 26.9515 38.2474 26.8893 38.0311 26.7648C37.8148 26.6374 37.643 26.467 37.5155 26.2537C37.3881 26.0404 37.3244 25.8048 37.3244 25.547C37.3244 25.2863 37.3881 25.0507 37.5155 24.8404C37.643 24.627 37.8148 24.4581 38.0311 24.3337C38.2474 24.2063 38.4874 24.1426 38.7511 24.1426C38.9378 24.1426 39.1141 24.1752 39.28 24.2404C39.4489 24.3026 39.597 24.3915 39.7244 24.507L39.5511 25.2048C39.477 25.0715 39.3718 24.9574 39.2355 24.8626C39.0993 24.7648 38.9422 24.7159 38.7644 24.7159C38.6104 24.7159 38.4696 24.7544 38.3422 24.8315C38.2178 24.9056 38.1185 25.0048 38.0444 25.1293C37.9733 25.2537 37.9378 25.393 37.9378 25.547C37.9378 25.6981 37.9733 25.8374 38.0444 25.9648C38.1185 26.0893 38.2178 26.19 38.3422 26.267C38.4696 26.3411 38.6104 26.3781 38.7644 26.3781C38.9422 26.3781 39.0993 26.3307 39.2355 26.2359C39.3718 26.1411 39.477 26.0256 39.5511 25.8893L39.7244 26.587C39.597 26.7026 39.4489 26.793 39.28 26.8581C39.1141 26.9204 38.9378 26.9515 38.7511 26.9515ZM41.3846 26.9337C41.1416 26.9337 40.9194 26.8715 40.7179 26.747C40.5164 26.6226 40.3549 26.4552 40.2335 26.2448C40.1149 26.0344 40.0557 25.8019 40.0557 25.547C40.0557 25.2922 40.1149 25.0596 40.2335 24.8493C40.3549 24.6389 40.5164 24.4715 40.7179 24.347C40.9194 24.2226 41.1416 24.1604 41.3846 24.1604C41.5624 24.1604 41.7268 24.193 41.8779 24.2581C42.032 24.3204 42.1638 24.4093 42.2735 24.5248V24.2137H42.829V26.8804H42.2735V26.5693C42.1638 26.6819 42.032 26.7707 41.8779 26.8359C41.7268 26.9011 41.5624 26.9337 41.3846 26.9337ZM41.4646 26.3737C41.6127 26.3737 41.7475 26.3367 41.869 26.2626C41.9935 26.1885 42.0912 26.0893 42.1624 25.9648C42.2364 25.8404 42.2735 25.7011 42.2735 25.547C42.2735 25.3959 42.2364 25.2581 42.1624 25.1337C42.0912 25.0063 41.9949 24.9056 41.8735 24.8315C41.752 24.7574 41.6157 24.7204 41.4646 24.7204C41.3164 24.7204 41.1801 24.7574 41.0557 24.8315C40.9342 24.9056 40.8364 25.0048 40.7624 25.1293C40.6912 25.2537 40.6557 25.393 40.6557 25.547C40.6557 25.6981 40.6912 25.8374 40.7624 25.9648C40.8364 26.0893 40.9342 26.1885 41.0557 26.2626C41.1772 26.3367 41.3135 26.3737 41.4646 26.3737ZM43.5514 26.8804V22.6137H44.1781V26.8804H43.5514ZM46.3678 26.8804V22.8804H47.7011C48.0418 22.8804 48.3441 22.9367 48.6078 23.0493C48.8744 23.1589 49.0996 23.3085 49.2833 23.4981C49.467 23.6848 49.6063 23.8981 49.7011 24.1381C49.7959 24.3781 49.8433 24.6256 49.8433 24.8804C49.8433 25.1352 49.7959 25.3826 49.7011 25.6226C49.6063 25.8626 49.467 26.0774 49.2833 26.267C49.0996 26.4537 48.8744 26.6033 48.6078 26.7159C48.3441 26.8256 48.0418 26.8804 47.7011 26.8804H46.3678ZM47.0078 26.2937H47.6389C47.9056 26.2937 48.1337 26.2537 48.3233 26.1737C48.5159 26.0907 48.6744 25.9811 48.7989 25.8448C48.9233 25.7085 49.0152 25.5574 49.0744 25.3915C49.1337 25.2226 49.1633 25.0522 49.1633 24.8804C49.1633 24.7085 49.1337 24.5396 49.0744 24.3737C49.0152 24.2048 48.9233 24.0522 48.7989 23.9159C48.6744 23.7796 48.5159 23.6715 48.3233 23.5915C48.1337 23.5085 47.9056 23.467 47.6389 23.467H47.0078V26.2937ZM50.4639 26.8804V24.2137H51.0905V26.8804H50.4639ZM50.7794 23.7826C50.6757 23.7826 50.5883 23.747 50.5172 23.6759C50.4461 23.6019 50.4105 23.5144 50.4105 23.4137C50.4105 23.307 50.4461 23.2196 50.5172 23.1515C50.5913 23.0804 50.6787 23.0448 50.7794 23.0448C50.8861 23.0448 50.9735 23.0804 51.0417 23.1515C51.1128 23.2226 51.1483 23.31 51.1483 23.4137C51.1483 23.5174 51.1128 23.6048 51.0417 23.6759C50.9705 23.747 50.8831 23.7826 50.7794 23.7826ZM53.0824 26.9515C52.8187 26.9515 52.5787 26.8893 52.3624 26.7648C52.1461 26.6374 51.9742 26.467 51.8468 26.2537C51.7194 26.0404 51.6557 25.8048 51.6557 25.547C51.6557 25.2863 51.7194 25.0507 51.8468 24.8404C51.9742 24.627 52.1461 24.4581 52.3624 24.3337C52.5787 24.2063 52.8187 24.1426 53.0824 24.1426C53.269 24.1426 53.4453 24.1752 53.6112 24.2404C53.7801 24.3026 53.9283 24.3915 54.0557 24.507L53.8824 25.2048C53.8083 25.0715 53.7031 24.9574 53.5668 24.8626C53.4305 24.7648 53.2735 24.7159 53.0957 24.7159C52.9416 24.7159 52.8009 24.7544 52.6735 24.8315C52.549 24.9056 52.4498 25.0048 52.3757 25.1293C52.3046 25.2537 52.269 25.393 52.269 25.547C52.269 25.6981 52.3046 25.8374 52.3757 25.9648C52.4498 26.0893 52.549 26.19 52.6735 26.267C52.8009 26.3411 52.9416 26.3781 53.0957 26.3781C53.2735 26.3781 53.4305 26.3307 53.5668 26.2359C53.7031 26.1411 53.8083 26.0256 53.8824 25.8893L54.0557 26.587C53.9283 26.7026 53.7801 26.793 53.6112 26.8581C53.4453 26.9204 53.269 26.9515 53.0824 26.9515ZM54.8581 26.8804V24.7204H54.3069V24.2137H54.8714V23.3248H55.4714V24.2137H56.0669V24.7204H55.4847V26.8804H54.8581ZM57.5846 26.9337C57.3416 26.9337 57.1194 26.8715 56.9179 26.747C56.7164 26.6226 56.5549 26.4552 56.4335 26.2448C56.3149 26.0344 56.2557 25.8019 56.2557 25.547C56.2557 25.2922 56.3149 25.0596 56.4335 24.8493C56.5549 24.6389 56.7164 24.4715 56.9179 24.347C57.1194 24.2226 57.3416 24.1604 57.5846 24.1604C57.7624 24.1604 57.9268 24.193 58.0779 24.2581C58.232 24.3204 58.3638 24.4093 58.4735 24.5248V24.2137H59.029V26.8804H58.4735V26.5693C58.3638 26.6819 58.232 26.7707 58.0779 26.8359C57.9268 26.9011 57.7624 26.9337 57.5846 26.9337ZM57.6646 26.3737C57.8127 26.3737 57.9475 26.3367 58.069 26.2626C58.1935 26.1885 58.2912 26.0893 58.3624 25.9648C58.4364 25.8404 58.4735 25.7011 58.4735 25.547C58.4735 25.3959 58.4364 25.2581 58.3624 25.1337C58.2912 25.0063 58.1949 24.9056 58.0735 24.8315C57.952 24.7574 57.8157 24.7204 57.6646 24.7204C57.5164 24.7204 57.3801 24.7574 57.2557 24.8315C57.1342 24.9056 57.0364 25.0048 56.9624 25.1293C56.8912 25.2537 56.8557 25.393 56.8557 25.547C56.8557 25.6981 56.8912 25.8374 56.9624 25.9648C57.0364 26.0893 57.1342 26.1885 57.2557 26.2626C57.3772 26.3367 57.5135 26.3737 57.6646 26.3737ZM60.0581 26.8804V24.7204H59.5069V24.2137H60.0714V23.3248H60.6714V24.2137H61.2669V24.7204H60.6847V26.8804H60.0581ZM61.7514 26.8804V24.2137H62.3781V26.8804H61.7514ZM62.0669 23.7826C61.9632 23.7826 61.8758 23.747 61.8047 23.6759C61.7336 23.6019 61.6981 23.5144 61.6981 23.4137C61.6981 23.307 61.7336 23.2196 61.8047 23.1515C61.8788 23.0804 61.9662 23.0448 62.0669 23.0448C62.1736 23.0448 62.261 23.0804 62.3292 23.1515C62.4003 23.2226 62.4358 23.31 62.4358 23.4137C62.4358 23.5174 62.4003 23.6048 62.3292 23.6759C62.2581 23.747 62.1706 23.7826 62.0669 23.7826ZM64.3654 26.9515C64.1047 26.9515 63.8661 26.8893 63.6499 26.7648C63.4336 26.6374 63.2617 26.467 63.1343 26.2537C63.0069 26.0404 62.9432 25.8048 62.9432 25.547C62.9432 25.2863 63.0069 25.0507 63.1343 24.8404C63.2617 24.627 63.4336 24.4581 63.6499 24.3337C63.8661 24.2063 64.1047 24.1426 64.3654 24.1426C64.6291 24.1426 64.8676 24.2063 65.081 24.3337C65.2973 24.4581 65.4691 24.627 65.5965 24.8404C65.7239 25.0507 65.7876 25.2863 65.7876 25.547C65.7876 25.8048 65.7239 26.0404 65.5965 26.2537C65.4691 26.467 65.2973 26.6374 65.081 26.7648C64.8676 26.8893 64.6291 26.9515 64.3654 26.9515ZM64.3654 26.3781C64.5165 26.3781 64.6543 26.3411 64.7787 26.267C64.9032 26.19 65.001 26.0893 65.0721 25.9648C65.1462 25.8404 65.1832 25.7011 65.1832 25.547C65.1832 25.393 65.1462 25.2537 65.0721 25.1293C65.001 25.0048 64.9032 24.9056 64.7787 24.8315C64.6543 24.7544 64.5165 24.7159 64.3654 24.7159C64.2143 24.7159 64.0765 24.7544 63.9521 24.8315C63.8276 24.9056 63.7284 25.0048 63.6543 25.1293C63.5832 25.2537 63.5476 25.393 63.5476 25.547C63.5476 25.7011 63.5832 25.8404 63.6543 25.9648C63.7284 26.0893 63.8261 26.19 63.9476 26.267C64.0721 26.3411 64.2113 26.3781 64.3654 26.3781ZM66.3469 26.8804V24.2137H66.9158V24.5737C67.0136 24.4344 67.1351 24.3278 67.2803 24.2537C67.4284 24.1796 67.5884 24.1426 67.7603 24.1426C67.9499 24.1426 68.1262 24.1885 68.2892 24.2804C68.4521 24.3722 68.584 24.5056 68.6847 24.6804C68.7855 24.8552 68.8358 25.067 68.8358 25.3159V26.8804H68.2092V25.4004C68.2092 25.2226 68.1543 25.0641 68.0447 24.9248C67.938 24.7856 67.7869 24.7159 67.5914 24.7159C67.4314 24.7159 67.2877 24.7722 67.1603 24.8848C67.0358 24.9974 66.9736 25.1648 66.9736 25.387V26.8804H66.3469Z" fill="white"/>
<defs>
<linearGradient id="paint0_linear_316_1052" x1="18.4247" y1="6.477" x2="2.09094" y2="6.477" gradientUnits="userSpaceOnUse">
<stop stop-color="#395C29"/>
<stop offset="0.401847" stop-color="#78C257"/>
</linearGradient>
<linearGradient id="paint1_linear_316_1052" x1="15.2349" y1="2.39344" x2="5.67566" y2="2.39344" gradientUnits="userSpaceOnUse">
<stop stop-color="#395C29"/>
<stop offset="0.351022" stop-color="#78C257"/>
</linearGradient>
<linearGradient id="paint2_linear_316_1052" x1="9.27383" y1="19.5572" x2="9.2891" y2="32.0009" gradientUnits="userSpaceOnUse">
<stop stop-color="#78C257"/>
<stop offset="1" stop-color="#395C29"/>
</linearGradient>
<linearGradient id="paint3_linear_316_1052" x1="10.1566" y1="19.9602" x2="2.82565" y2="31.4368" gradientUnits="userSpaceOnUse">
<stop stop-color="#78C257"/>
<stop offset="1" stop-color="#395C29"/>
</linearGradient>
</defs>
</svg>
