<svg width="25" height="24" viewBox="0 0 25 24" fill="none" xmlns="http://www.w3.org/2000/svg">
<path fill-rule="evenodd" clip-rule="evenodd" d="M19.2168 19.16C19.8068 18.26 20.0268 17.8 20.4768 16.79C17.1568 15.53 16.6268 10.8 19.9068 8.98999C18.9068 7.72999 17.4968 7 16.1668 7C15.2068 7 14.5468 7.25001 13.9568 7.48001C13.4568 7.67001 13.0068 7.84 12.4468 7.84C11.8468 7.84 11.3168 7.65001 10.7568 7.45001C10.1468 7.23001 9.50676 7 8.70676 7C7.21676 7 5.62677 7.91 4.61677 9.47C3.19677 11.67 3.44677 15.79 5.73677 19.31C6.55677 20.57 7.65677 21.98 9.08677 22C9.68677 22.01 10.0768 21.83 10.5068 21.64C10.9968 21.42 11.5268 21.18 12.4568 21.18C13.3868 21.17 13.9068 21.42 14.3968 21.64C14.8168 21.83 15.1968 22.01 15.7868 22C17.2368 21.98 18.3968 20.42 19.2168 19.16Z" fill="black"/>
<path fill-rule="evenodd" clip-rule="evenodd" d="M15.9566 2C16.1166 3.1 15.6666 4.19001 15.0766 4.95001C14.4466 5.77001 13.3466 6.41 12.2866 6.37C12.0966 5.31 12.5866 4.21999 13.1866 3.48999C13.8566 2.68999 14.9866 2.07 15.9566 2Z" fill="black"/>
</svg>
