<svg width="89" height="42" viewBox="0 0 89 42" fill="none" xmlns="http://www.w3.org/2000/svg">
<path d="M3.12842 6.86037C9.51261 13.0286 17.1443 13.4957 23.7832 7.14061" stroke="url(#paint0_linear_316_1139)" stroke-width="3.36449" stroke-linecap="round" stroke-linejoin="round"/>
<path d="M7.63477 2.8416C10.6391 6.20611 16.2722 6.20612 19.4643 2.84163" stroke="url(#paint1_linear_316_1139)" stroke-width="3.36449" stroke-linecap="round" stroke-linejoin="round"/>
<path d="M18.1604 1.88635C18.6316 1.01238 19.6753 0.712938 20.4916 1.21753C21.3078 1.72211 21.5875 2.83966 21.1162 3.71363L3.68477 36.0414C3.21352 36.9153 2.1698 37.2148 1.35357 36.7102C0.53733 36.2056 0.257667 35.0881 0.728921 34.2141L18.1604 1.88635Z" fill="url(#paint2_linear_316_1139)"/>
<path d="M22.4391 6.20888C22.9228 5.31169 23.9943 5.00428 24.8322 5.52228C25.6701 6.04027 25.9572 7.18751 25.4734 8.0847L8.34714 39.8465C7.76661 40.9232 6.48088 41.2921 5.47537 40.6705C4.80503 40.2561 4.57536 39.3383 4.96238 38.6205L22.4391 6.20888Z" fill="url(#paint3_linear_316_1139)"/>
<path d="M2.37695 35.1082C8.76114 28.94 16.272 28.94 22.9108 35.2951" stroke="#78C257" stroke-width="3.73832" stroke-linecap="round" stroke-linejoin="round"/>
<path d="M6.5083 39.2922C9.51263 35.9277 15.3335 36.1147 18.5256 39.4791" stroke="#78C257" stroke-width="3.73832" stroke-linecap="round" stroke-linejoin="round"/>
<path d="M31.819 24.3723L39.1813 9.53173H32.6499V6.98101H43.3745L36.0122 21.8216H43.0074V24.3723H31.819ZM59.4102 24.7201C58.1477 24.7201 56.9625 24.4883 55.8546 24.0245C54.7467 23.5478 53.7741 22.8973 52.9367 22.0728C52.1122 21.2483 51.4617 20.2886 50.985 19.1936C50.5084 18.0986 50.2701 16.9263 50.2701 15.6767C50.2701 14.4271 50.5084 13.2548 50.985 12.1598C51.4617 11.0647 52.1122 10.105 52.9367 9.28053C53.7741 8.45605 54.7467 7.81193 55.8546 7.34816C56.9625 6.87151 58.1477 6.63318 59.4102 6.63318C60.6855 6.63318 61.8707 6.87151 62.9657 7.34816C64.0736 7.81193 65.0462 8.45605 65.8836 9.28053C66.7209 10.105 67.3715 11.0647 67.8353 12.1598C68.3119 13.2548 68.5502 14.4271 68.5502 15.6767C68.5502 16.9263 68.3119 18.0986 67.8353 19.1936C67.3715 20.2886 66.7209 21.2483 65.8836 22.0728C65.0462 22.8973 64.0736 23.5478 62.9657 24.0245C61.8707 24.4883 60.6855 24.7201 59.4102 24.7201ZM59.4102 21.9955C60.5696 21.9955 61.613 21.7121 62.5406 21.1453C63.481 20.5784 64.2217 19.8184 64.7628 18.8651C65.3168 17.8989 65.5937 16.8361 65.5937 15.6767C65.5937 14.5044 65.3168 13.4416 64.7628 12.4883C64.2217 11.535 63.481 10.7749 62.5406 10.2081C61.613 9.64124 60.5696 9.35782 59.4102 9.35782C58.2507 9.35782 57.2008 9.64124 56.2604 10.2081C55.3329 10.7749 54.5921 11.535 54.0382 12.4883C53.4971 13.4416 53.2266 14.5044 53.2266 15.6767C53.2266 16.8361 53.4971 17.8989 54.0382 18.8651C54.5921 19.8184 55.3329 20.5784 56.2604 21.1453C57.2008 21.7121 58.2507 21.9955 59.4102 21.9955ZM77.3679 24.3723V6.98101H86.2954V9.47376H80.1505V12.6622H84.9428V15.097H80.1505V21.8216H86.2954V24.3723H77.3679Z" fill="black"/>
<path d="M32.0571 34.5723V29.4056L34.4071 32.4834L36.7127 29.4056V34.5723H35.9127V32.7C35.9127 32.5445 35.9145 32.3704 35.9182 32.1778C35.9219 31.9852 35.9367 31.7667 35.9627 31.5223C35.8478 31.7186 35.7367 31.8908 35.6293 32.0389C35.5219 32.1871 35.4238 32.3223 35.3349 32.4445L34.3849 33.7612L33.4071 32.4445C33.3182 32.326 33.2182 32.1889 33.1071 32.0334C32.996 31.8778 32.8849 31.7037 32.7738 31.5112C32.7997 31.763 32.8145 31.9852 32.8182 32.1778C32.8219 32.3667 32.8238 32.5408 32.8238 32.7V34.5723H32.0571ZM39.4366 34.6612C39.0774 34.6612 38.757 34.5834 38.4755 34.4278C38.194 34.2723 37.9736 34.0593 37.8144 33.7889C37.6588 33.5186 37.5811 33.213 37.5811 32.8723C37.5811 32.5463 37.657 32.2537 37.8088 31.9945C37.9644 31.7352 38.1718 31.5297 38.4311 31.3778C38.694 31.226 38.9829 31.15 39.2977 31.15C39.6162 31.15 39.9033 31.2241 40.1588 31.3723C40.4181 31.5204 40.6236 31.7223 40.7755 31.9778C40.9274 32.2297 41.0033 32.5167 41.0033 32.8389V33.1334H38.8977C38.8051 33.1334 38.7125 33.1297 38.6199 33.1223C38.5274 33.1112 38.4348 33.0982 38.3422 33.0834C38.3866 33.3389 38.5088 33.5519 38.7088 33.7223C38.9125 33.8926 39.1607 33.9778 39.4533 33.9778C39.6644 33.9778 39.857 33.9334 40.0311 33.8445C40.2051 33.7519 40.3477 33.6334 40.4588 33.4889L40.6477 34.2667C40.4848 34.3963 40.2996 34.4945 40.0922 34.5612C39.8848 34.6278 39.6662 34.6612 39.4366 34.6612ZM38.3255 32.5834C38.5181 32.5463 38.7088 32.5278 38.8977 32.5278H39.7422C39.8348 32.5278 39.9236 32.5315 40.0088 32.5389C40.0977 32.5463 40.1829 32.5556 40.2644 32.5667C40.2088 32.3408 40.0922 32.1575 39.9144 32.0167C39.7403 31.8723 39.5329 31.8 39.2922 31.8C39.0588 31.8 38.8533 31.8741 38.6755 32.0223C38.4977 32.1704 38.3811 32.3575 38.3255 32.5834ZM43.1383 34.6389C42.8309 34.6389 42.5513 34.5612 42.2995 34.4056C42.0476 34.25 41.8458 34.0408 41.6939 33.7778C41.5458 33.5149 41.4717 33.2241 41.4717 32.9056C41.4717 32.5871 41.5458 32.2963 41.6939 32.0334C41.8458 31.7704 42.0476 31.5612 42.2995 31.4056C42.5513 31.25 42.8309 31.1723 43.1383 31.1723C43.3346 31.1723 43.518 31.2056 43.6883 31.2723C43.8624 31.3352 44.018 31.4241 44.155 31.5389V29.2389H44.9383V34.5723H44.2439V34.1889C44.1069 34.3297 43.9421 34.4408 43.7495 34.5223C43.5606 34.6 43.3569 34.6389 43.1383 34.6389ZM43.2328 33.9389C43.418 33.9389 43.5865 33.8926 43.7383 33.8C43.8939 33.7075 44.0161 33.5834 44.105 33.4278C44.1976 33.2723 44.2439 33.0982 44.2439 32.9056C44.2439 32.7167 44.1976 32.5445 44.105 32.3889C44.0161 32.2297 43.8958 32.1037 43.7439 32.0112C43.5921 31.9186 43.4217 31.8723 43.2328 31.8723C43.0476 31.8723 42.8772 31.9186 42.7217 32.0112C42.5698 32.1037 42.4476 32.2278 42.355 32.3834C42.2661 32.5389 42.2217 32.713 42.2217 32.9056C42.2217 33.0945 42.2661 33.2686 42.355 33.4278C42.4476 33.5834 42.5698 33.7075 42.7217 33.8C42.8735 33.8926 43.0439 33.9389 43.2328 33.9389ZM45.8413 34.5723V31.2389H46.6246V34.5723H45.8413ZM46.2357 30.7C46.1061 30.7 45.9969 30.6556 45.908 30.5667C45.8191 30.4741 45.7746 30.3649 45.7746 30.2389C45.7746 30.1056 45.8191 29.9963 45.908 29.9112C46.0006 29.8223 46.1098 29.7778 46.2357 29.7778C46.3691 29.7778 46.4783 29.8223 46.5635 29.9112C46.6524 30 46.6969 30.1093 46.6969 30.2389C46.6969 30.3686 46.6524 30.4778 46.5635 30.5667C46.4746 30.6556 46.3654 30.7 46.2357 30.7ZM49.1144 34.6612C48.7848 34.6612 48.4848 34.5834 48.2144 34.4278C47.944 34.2686 47.7292 34.0556 47.5699 33.7889C47.4107 33.5223 47.3311 33.2278 47.3311 32.9056C47.3311 32.5797 47.4107 32.2852 47.5699 32.0223C47.7292 31.7556 47.944 31.5445 48.2144 31.3889C48.4848 31.2297 48.7848 31.15 49.1144 31.15C49.3477 31.15 49.5681 31.1908 49.7755 31.2723C49.9866 31.35 50.1718 31.4612 50.3311 31.6056L50.1144 32.4778C50.0218 32.3112 49.8903 32.1686 49.7199 32.05C49.5496 31.9278 49.3533 31.8667 49.1311 31.8667C48.9385 31.8667 48.7625 31.9149 48.6033 32.0112C48.4477 32.1037 48.3236 32.2278 48.2311 32.3834C48.1422 32.5389 48.0977 32.713 48.0977 32.9056C48.0977 33.0945 48.1422 33.2686 48.2311 33.4278C48.3236 33.5834 48.4477 33.7093 48.6033 33.8056C48.7625 33.8982 48.9385 33.9445 49.1311 33.9445C49.3533 33.9445 49.5496 33.8852 49.7199 33.7667C49.8903 33.6482 50.0218 33.5037 50.1144 33.3334L50.3311 34.2056C50.1718 34.35 49.9866 34.463 49.7755 34.5445C49.5681 34.6223 49.3477 34.6612 49.1144 34.6612ZM52.4062 34.6389C52.1025 34.6389 51.8247 34.5612 51.5729 34.4056C51.321 34.25 51.1192 34.0408 50.9673 33.7778C50.8192 33.5149 50.7451 33.2241 50.7451 32.9056C50.7451 32.5871 50.8192 32.2963 50.9673 32.0334C51.1192 31.7704 51.321 31.5612 51.5729 31.4056C51.8247 31.25 52.1025 31.1723 52.4062 31.1723C52.6285 31.1723 52.834 31.213 53.0229 31.2945C53.2155 31.3723 53.3803 31.4834 53.5173 31.6278V31.2389H54.2118V34.5723H53.5173V34.1834C53.3803 34.3241 53.2155 34.4352 53.0229 34.5167C52.834 34.5982 52.6285 34.6389 52.4062 34.6389ZM52.5062 33.9389C52.6914 33.9389 52.8599 33.8926 53.0118 33.8C53.1673 33.7075 53.2896 33.5834 53.3785 33.4278C53.471 33.2723 53.5173 33.0982 53.5173 32.9056C53.5173 32.7167 53.471 32.5445 53.3785 32.3889C53.2896 32.2297 53.1692 32.1037 53.0173 32.0112C52.8655 31.9186 52.6951 31.8723 52.5062 31.8723C52.321 31.8723 52.1507 31.9186 51.9951 32.0112C51.8433 32.1037 51.721 32.2278 51.6285 32.3834C51.5396 32.5389 51.4951 32.713 51.4951 32.9056C51.4951 33.0945 51.5396 33.2686 51.6285 33.4278C51.721 33.5834 51.8433 33.7075 51.9951 33.8C52.147 33.8926 52.3173 33.9389 52.5062 33.9389ZM55.1147 34.5723V29.2389H55.8981V34.5723H55.1147ZM58.6352 34.5723V29.5723H60.3019C60.7278 29.5723 61.1056 29.6426 61.4352 29.7834C61.7686 29.9204 62.05 30.1075 62.2797 30.3445C62.5093 30.5778 62.6834 30.8445 62.8019 31.1445C62.9204 31.4445 62.9797 31.7537 62.9797 32.0723C62.9797 32.3908 62.9204 32.7 62.8019 33C62.6834 33.3 62.5093 33.5686 62.2797 33.8056C62.05 34.0389 61.7686 34.226 61.4352 34.3667C61.1056 34.5037 60.7278 34.5723 60.3019 34.5723H58.6352ZM59.4352 33.8389H60.2241C60.5574 33.8389 60.8426 33.7889 61.0797 33.6889C61.3204 33.5852 61.5186 33.4482 61.6741 33.2778C61.8297 33.1075 61.9445 32.9186 62.0186 32.7112C62.0926 32.5 62.1297 32.2871 62.1297 32.0723C62.1297 31.8575 62.0926 31.6463 62.0186 31.4389C61.9445 31.2278 61.8297 31.0371 61.6741 30.8667C61.5186 30.6963 61.3204 30.5612 61.0797 30.4612C60.8426 30.3575 60.5574 30.3056 60.2241 30.3056H59.4352V33.8389ZM63.7554 34.5723V31.2389H64.5387V34.5723H63.7554ZM64.1498 30.7C64.0202 30.7 63.9109 30.6556 63.822 30.5667C63.7331 30.4741 63.6887 30.3649 63.6887 30.2389C63.6887 30.1056 63.7331 29.9963 63.822 29.9112C63.9146 29.8223 64.0239 29.7778 64.1498 29.7778C64.2831 29.7778 64.3924 29.8223 64.4776 29.9112C64.5665 30 64.6109 30.1093 64.6109 30.2389C64.6109 30.3686 64.5665 30.4778 64.4776 30.5667C64.3887 30.6556 64.2794 30.7 64.1498 30.7ZM67.0285 34.6612C66.6988 34.6612 66.3988 34.5834 66.1285 34.4278C65.8581 34.2686 65.6433 34.0556 65.484 33.7889C65.3247 33.5223 65.2451 33.2278 65.2451 32.9056C65.2451 32.5797 65.3247 32.2852 65.484 32.0223C65.6433 31.7556 65.8581 31.5445 66.1285 31.3889C66.3988 31.2297 66.6988 31.15 67.0285 31.15C67.2618 31.15 67.4822 31.1908 67.6896 31.2723C67.9007 31.35 68.0859 31.4612 68.2451 31.6056L68.0285 32.4778C67.9359 32.3112 67.8044 32.1686 67.634 32.05C67.4636 31.9278 67.2673 31.8667 67.0451 31.8667C66.8525 31.8667 66.6766 31.9149 66.5173 32.0112C66.3618 32.1037 66.2377 32.2278 66.1451 32.3834C66.0562 32.5389 66.0118 32.713 66.0118 32.9056C66.0118 33.0945 66.0562 33.2686 66.1451 33.4278C66.2377 33.5834 66.3618 33.7093 66.5173 33.8056C66.6766 33.8982 66.8525 33.9445 67.0451 33.9445C67.2673 33.9445 67.4636 33.8852 67.634 33.7667C67.8044 33.6482 67.9359 33.5037 68.0285 33.3334L68.2451 34.2056C68.0859 34.35 67.9007 34.463 67.6896 34.5445C67.4822 34.6223 67.2618 34.6612 67.0285 34.6612ZM69.2481 34.5723V31.8723H68.5592V31.2389H69.2647V30.1278H70.0147V31.2389H70.7592V31.8723H70.0314V34.5723H69.2481ZM72.6562 34.6389C72.3525 34.6389 72.0747 34.5612 71.8229 34.4056C71.571 34.25 71.3692 34.0408 71.2173 33.7778C71.0692 33.5149 70.9951 33.2241 70.9951 32.9056C70.9951 32.5871 71.0692 32.2963 71.2173 32.0334C71.3692 31.7704 71.571 31.5612 71.8229 31.4056C72.0747 31.25 72.3525 31.1723 72.6562 31.1723C72.8785 31.1723 73.084 31.213 73.2729 31.2945C73.4655 31.3723 73.6303 31.4834 73.7673 31.6278V31.2389H74.4618V34.5723H73.7673V34.1834C73.6303 34.3241 73.4655 34.4352 73.2729 34.5167C73.084 34.5982 72.8785 34.6389 72.6562 34.6389ZM72.7562 33.9389C72.9414 33.9389 73.1099 33.8926 73.2618 33.8C73.4173 33.7075 73.5396 33.5834 73.6285 33.4278C73.721 33.2723 73.7673 33.0982 73.7673 32.9056C73.7673 32.7167 73.721 32.5445 73.6285 32.3889C73.5396 32.2297 73.4192 32.1037 73.2673 32.0112C73.1155 31.9186 72.9451 31.8723 72.7562 31.8723C72.571 31.8723 72.4007 31.9186 72.2451 32.0112C72.0933 32.1037 71.971 32.2278 71.8785 32.3834C71.7896 32.5389 71.7451 32.713 71.7451 32.9056C71.7451 33.0945 71.7896 33.2686 71.8785 33.4278C71.971 33.5834 72.0933 33.7075 72.2451 33.8C72.397 33.8926 72.5673 33.9389 72.7562 33.9389ZM75.7481 34.5723V31.8723H75.0592V31.2389H75.7647V30.1278H76.5147V31.2389H77.2592V31.8723H76.5314V34.5723H75.7481ZM77.8647 34.5723V31.2389H78.6481V34.5723H77.8647ZM78.2592 30.7C78.1296 30.7 78.0203 30.6556 77.9314 30.5667C77.8425 30.4741 77.7981 30.3649 77.7981 30.2389C77.7981 30.1056 77.8425 29.9963 77.9314 29.9112C78.024 29.8223 78.1333 29.7778 78.2592 29.7778C78.3925 29.7778 78.5018 29.8223 78.587 29.9112C78.6758 30 78.7203 30.1093 78.7203 30.2389C78.7203 30.3686 78.6758 30.4778 78.587 30.5667C78.4981 30.6556 78.3888 30.7 78.2592 30.7ZM81.1323 34.6612C80.8063 34.6612 80.5082 34.5834 80.2378 34.4278C79.9675 34.2686 79.7526 34.0556 79.5934 33.7889C79.4341 33.5223 79.3545 33.2278 79.3545 32.9056C79.3545 32.5797 79.4341 32.2852 79.5934 32.0223C79.7526 31.7556 79.9675 31.5445 80.2378 31.3889C80.5082 31.2297 80.8063 31.15 81.1323 31.15C81.4619 31.15 81.76 31.2297 82.0267 31.3889C82.2971 31.5445 82.5119 31.7556 82.6712 32.0223C82.8304 32.2852 82.91 32.5797 82.91 32.9056C82.91 33.2278 82.8304 33.5223 82.6712 33.7889C82.5119 34.0556 82.2971 34.2686 82.0267 34.4278C81.76 34.5834 81.4619 34.6612 81.1323 34.6612ZM81.1323 33.9445C81.3212 33.9445 81.4934 33.8982 81.6489 33.8056C81.8045 33.7093 81.9267 33.5834 82.0156 33.4278C82.1082 33.2723 82.1545 33.0982 82.1545 32.9056C82.1545 32.713 82.1082 32.5389 82.0156 32.3834C81.9267 32.2278 81.8045 32.1037 81.6489 32.0112C81.4934 31.9149 81.3212 31.8667 81.1323 31.8667C80.9434 31.8667 80.7712 31.9149 80.6156 32.0112C80.46 32.1037 80.336 32.2278 80.2434 32.3834C80.1545 32.5389 80.11 32.713 80.11 32.9056C80.11 33.0982 80.1545 33.2723 80.2434 33.4278C80.336 33.5834 80.4582 33.7093 80.61 33.8056C80.7656 33.8982 80.9397 33.9445 81.1323 33.9445ZM83.6092 34.5723V31.2389H84.3203V31.6889C84.4425 31.5149 84.5944 31.3815 84.7758 31.2889C84.961 31.1963 85.161 31.15 85.3758 31.15C85.6129 31.15 85.8333 31.2075 86.037 31.3223C86.2407 31.4371 86.4055 31.6037 86.5314 31.8223C86.6573 32.0408 86.7203 32.3056 86.7203 32.6167V34.5723H85.937V32.7223C85.937 32.5 85.8684 32.3019 85.7314 32.1278C85.5981 31.9537 85.4092 31.8667 85.1647 31.8667C84.9647 31.8667 84.7851 31.9371 84.6258 32.0778C84.4703 32.2186 84.3925 32.4278 84.3925 32.7056V34.5723H83.6092Z" fill="black"/>
<defs>
<linearGradient id="paint0_linear_316_1139" x1="23.6623" y1="9.06842" x2="3.12842" y2="9.06842" gradientUnits="userSpaceOnUse">
<stop stop-color="#395C29"/>
<stop offset="0.401847" stop-color="#78C257"/>
</linearGradient>
<linearGradient id="paint1_linear_316_1139" x1="19.6521" y1="3.9641" x2="7.63477" y2="3.9641" gradientUnits="userSpaceOnUse">
<stop stop-color="#395C29"/>
<stop offset="0.351022" stop-color="#78C257"/>
</linearGradient>
<linearGradient id="paint2_linear_316_1139" x1="12.1585" y1="25.419" x2="12.1775" y2="40.9735" gradientUnits="userSpaceOnUse">
<stop stop-color="#78C257"/>
<stop offset="1" stop-color="#395C29"/>
</linearGradient>
<linearGradient id="paint3_linear_316_1139" x1="13.2683" y1="25.9226" x2="4.12665" y2="40.3157" gradientUnits="userSpaceOnUse">
<stop stop-color="#78C257"/>
<stop offset="1" stop-color="#395C29"/>
</linearGradient>
</defs>
</svg>
