<svg width="13" height="13" viewBox="0 0 13 13" fill="none" xmlns="http://www.w3.org/2000/svg">
<path d="M11.0348 2.73579C10.2298 2.65579 9.42483 2.59579 8.61483 2.55079V2.54579L8.50483 1.89579C8.42983 1.43579 8.31983 0.745789 7.14983 0.745789H5.83983C4.67483 0.745789 4.56483 1.40579 4.48483 1.89079L4.37983 2.53079C3.91483 2.56079 3.44983 2.59079 2.98483 2.63579L1.96483 2.73579C1.75483 2.75579 1.60483 2.94079 1.62483 3.14579C1.64483 3.35079 1.82483 3.50079 2.03483 3.48079L3.05483 3.38079C5.67483 3.12079 8.31484 3.22079 10.9648 3.48579C10.9798 3.48579 10.9898 3.48579 11.0048 3.48579C11.1948 3.48579 11.3598 3.34079 11.3798 3.14579C11.3948 2.94079 11.2448 2.75579 11.0348 2.73579Z" fill="#292D32"/>
<path d="M10.1149 4.19079C9.99487 4.06579 9.82987 3.99579 9.65987 3.99579H3.33987C3.16987 3.99579 2.99987 4.06579 2.88487 4.19079C2.76987 4.31579 2.70487 4.48579 2.71487 4.66079L3.02487 9.79079C3.07987 10.5508 3.14987 11.5008 4.89487 11.5008H8.10487C9.84987 11.5008 9.91988 10.5558 9.97487 9.79079L10.2849 4.66579C10.2949 4.48579 10.2299 4.31579 10.1149 4.19079ZM7.32987 8.99579H5.66487C5.45987 8.99579 5.28987 8.82579 5.28987 8.62079C5.28987 8.41579 5.45987 8.24579 5.66487 8.24579H7.32987C7.53487 8.24579 7.70487 8.41579 7.70487 8.62079C7.70487 8.82579 7.53487 8.99579 7.32987 8.99579ZM7.74987 6.99579H5.24987C5.04487 6.99579 4.87487 6.82579 4.87487 6.62079C4.87487 6.41579 5.04487 6.24579 5.24987 6.24579H7.74987C7.95487 6.24579 8.12487 6.41579 8.12487 6.62079C8.12487 6.82579 7.95487 6.99579 7.74987 6.99579Z" fill="#292D32"/>
</svg>
